<svg xmlns="http://www.w3.org/2000/svg" version="1.1" xmlns:xlink="http://www.w3.org/1999/xlink" xmlns:svgjs="http://svgjs.dev/svgjs" width="1440" height="560" preserveAspectRatio="none" viewBox="0 0 1440 560"><g mask="url(&quot;#SvgjsMask2194&quot;)" fill="none"><circle r="46.666666666666664" cx="1057.26" cy="19.96" stroke="rgba(255, 255, 255, 1)" stroke-width="1"></circle><path d="M1336.6100000000001 127.83 L1278.5700000000002 106.58L1340.2397873865416 84.5552126134585z" stroke="rgba(255, 255, 255, 1)" stroke-width="1" stroke-dasharray="3, 3"></path><path d="M1400.78 410.32a5.6 5.6 0 1 0-6.3 9.25 5.6 5.6 0 1 0 6.3-9.25zM1391.77 423.54a5.6 5.6 0 1 0-6.3 9.26 5.6 5.6 0 1 0 6.3-9.26zM1382.76 436.76a5.6 5.6 0 1 0-6.3 9.26 5.6 5.6 0 1 0 6.3-9.26zM1373.75 449.99a5.6 5.6 0 1 0-6.3 9.25 5.6 5.6 0 1 0 6.3-9.25zM1405.58 374.87a5.6 5.6 0 1 0-6.31 9.25 5.6 5.6 0 1 0 6.31-9.25zM1396.57 388.09a5.6 5.6 0 1 0-6.31 9.25 5.6 5.6 0 1 0 6.31-9.25zM1387.56 401.31a5.6 5.6 0 1 0-6.31 9.26 5.6 5.6 0 1 0 6.31-9.26zM1378.55 414.53a5.6 5.6 0 1 0-6.31 9.26 5.6 5.6 0 1 0 6.31-9.26zM1410.38 339.41a5.6 5.6 0 1 0-6.31 9.26 5.6 5.6 0 1 0 6.31-9.26zM1401.37 352.63a5.6 5.6 0 1 0-6.31 9.26 5.6 5.6 0 1 0 6.31-9.26zM1392.36 365.86a5.6 5.6 0 1 0-6.31 9.25 5.6 5.6 0 1 0 6.31-9.25zM1383.35 379.08a5.6 5.6 0 1 0-6.31 9.25 5.6 5.6 0 1 0 6.31-9.25z" stroke="rgba(255, 255, 255, 1)" stroke-width="1.72" stroke-dasharray="3, 3"></path><rect width="272.88" height="272.88" clip-path="url(&quot;#SvgjsClipPath2195&quot;)" x="1036.29" y="38.59" fill="url(&quot;#SvgjsPattern2196&quot;)" transform="rotate(44.26, 1172.73, 175.03)"></rect><rect width="125.4" height="125.4" clip-path="url(&quot;#SvgjsClipPath2197&quot;)" x="-6.11" y="113.41" fill="url(&quot;#SvgjsPattern2198&quot;)" transform="rotate(4.3, 56.59, 176.11)"></rect><rect width="234" height="234" clip-path="url(&quot;#SvgjsClipPath2199&quot;)" x="874.85" y="402.82" fill="url(&quot;#SvgjsPattern2200&quot;)" transform="rotate(0.38, 991.85, 519.82)"></rect><rect width="60" height="60" clip-path="url(&quot;#SvgjsClipPath2201&quot;)" x="1348.64" y="68.24" fill="url(&quot;#SvgjsPattern2202&quot;)" transform="rotate(329.04, 1378.64, 98.24)"></rect><path d="M945.82 704.44 L843.88 655.52L949.981786329753 624.848213670247z" fill="rgba(18, 18, 18, 1)"></path><path d="M214.61 528.85a5.6 5.6 0 1 0-2.68 10.88 5.6 5.6 0 1 0 2.68-10.88zM210.78 544.39a5.6 5.6 0 1 0-2.69 10.87 5.6 5.6 0 1 0 2.69-10.87zM206.95 559.92a5.6 5.6 0 1 0-2.69 10.88 5.6 5.6 0 1 0 2.69-10.88zM203.12 575.46a5.6 5.6 0 1 0-2.69 10.87 5.6 5.6 0 1 0 2.69-10.87zM206.73 493.95a5.6 5.6 0 1 0-2.68 10.88 5.6 5.6 0 1 0 2.68-10.88zM202.9 509.49a5.6 5.6 0 1 0-2.68 10.87 5.6 5.6 0 1 0 2.68-10.87zM199.07 525.02a5.6 5.6 0 1 0-2.68 10.88 5.6 5.6 0 1 0 2.68-10.88zM195.24 540.56a5.6 5.6 0 1 0-2.68 10.87 5.6 5.6 0 1 0 2.68-10.87z" fill="rgba(18, 18, 18, 1)"></path><path d="M1343.75 395.53 L1326.48 537.18L1415.9019235305068 547.1419235305067z" fill="rgba(221, 88, 214, 1)"></path><path d="M623.6400000000001 70.56 L572.11 85.00999999999999L617.529056504955 97.43905650495495z" stroke="rgba(221, 88, 214, 1)" stroke-width="1" stroke-dasharray="3, 2"></path><path d="M230.24 504.45a5.6 5.6 0 1 0-8.28 7.54 5.6 5.6 0 1 0 8.28-7.54zM218.41 515.22a5.6 5.6 0 1 0-8.28 7.54 5.6 5.6 0 1 0 8.28-7.54zM206.58 526a5.6 5.6 0 1 0-8.28 7.54 5.6 5.6 0 1 0 8.28-7.54zM194.75 536.77a5.6 5.6 0 1 0-8.28 7.54 5.6 5.6 0 1 0 8.28-7.54z" stroke="rgba(18, 18, 18, 1)" stroke-width="1" stroke-dasharray="3, 2"></path></g><defs><mask id="SvgjsMask2194"><rect width="1440" height="560" fill="#ffffff"></rect></mask><pattern x="0" y="0" width="7.58" height="7.58" patternUnits="userSpaceOnUse" id="SvgjsPattern2196"><path d="M3.79 1L3.79 6.58M1 3.79L6.58 3.79" stroke="rgba(18, 18, 18, 1)" fill="none" stroke-width="2.01"></path></pattern><clipPath id="SvgjsClipPath2195"><circle r="68.22" cx="1172.73" cy="175.03"></circle></clipPath><pattern x="0" y="0" width="12.54" height="12.54" patternUnits="userSpaceOnUse" id="SvgjsPattern2198"><path d="M6.27 1L6.27 11.54M1 6.27L11.54 6.27" stroke="rgba(221, 88, 214, 1)" fill="none" stroke-width="2.18"></path></pattern><clipPath id="SvgjsClipPath2197"><circle r="31.35" cx="56.59" cy="176.11"></circle></clipPath><pattern x="0" y="0" width="9" height="9" patternUnits="userSpaceOnUse" id="SvgjsPattern2200"><path d="M0 9L4.5 0L9 9" stroke="rgba(255, 255, 255, 1)" fill="none"></path></pattern><clipPath id="SvgjsClipPath2199"><circle r="58.5" cx="991.85" cy="519.82"></circle></clipPath><pattern x="0" y="0" width="6" height="6" patternUnits="userSpaceOnUse" id="SvgjsPattern2202"><path d="M0 6L3 0L6 6" stroke="rgba(221, 88, 214, 1)" fill="none"></path></pattern><clipPath id="SvgjsClipPath2201"><circle r="15" cx="1378.64" cy="98.24"></circle></clipPath></defs></svg>